<?xml version="1.0" encoding="UTF-8"?><svg id="Layer_1" xmlns="http://www.w3.org/2000/svg" viewBox="0 0 1920 1080"><defs><style>.cls-1{fill:#f1f0f1;}</style></defs><path class="cls-1" d="m592.71,508.4h5.44l12.12,36.54h-4.47l-2.34-7.34h-16.01l-2.34,7.34h-4.47l12.08-36.54Zm9.55,25.48l-6.64-20.79-.22-.58-.18.53-6.64,20.83h13.67Z"/><path class="cls-1" d="m632.17,540.25c-1.42,2.52-4.2,5.13-9.11,5.13-6.1,0-9.64-3.94-9.64-10.79v-18.4h4.11v18.05c0,5.04,2.26,7.65,6.77,7.65,5.88,0,7.61-4.29,7.87-7.21v-18.49h4.07v28.27c0,7.21-2.48,10.48-8.98,10.48h-13.18v-3.54h12.65c4.11,0,5.44-1.73,5.44-7.12v-4.03Z"/><path class="cls-1" d="m643.18,508.4h4.03v12.21c1.11-2.03,3.89-4.87,9.02-4.87,7.03,0,11.24,4.95,11.24,12.34v5.04c0,7.43-4.25,12.25-11.19,12.25-5.13,0-7.83-2.74-9.07-4.69v4.25h-4.03v-36.54Zm12.21,33.44c5.4,0,7.92-3.76,7.92-8.94v-4.69c0-5.13-2.61-8.94-7.96-8.94s-8.14,3.67-8.14,8.89v4.78c0,5.18,2.83,8.89,8.18,8.89Z"/><path class="cls-1" d="m671.71,528.57c0-7.96,4.11-12.83,12.34-12.83,7.43,0,11.85,4.16,11.85,12.47v3.1h-19.99v1.5c0,5.88,2.7,9.02,8.14,9.02,4.47,0,6.81-2.17,7.21-5.71l.04-.71h4.34l-.04.44c-.53,5.62-4.29,9.51-11.55,9.51-8.23,0-12.34-4.87-12.34-12.87v-3.94Zm19.99-.35l-.04-1.42c-.22-5.35-3.14-7.52-7.65-7.52-5.35,0-8.05,3.05-8.09,8.94h15.79Z"/><path class="cls-1" d="m705.55,521.01c1.11-2.52,3.94-5.26,8.36-5.26,5.26,0,7.92,3.27,7.92,9.2v2.57h-4.16v-2.17c0-3.58-1.11-6.06-5-6.06-5.44,0-7.12,5.17-7.12,7.96v17.69h-4.07v-28.75h4.07v4.82Z"/><path class="cls-1" d="m730.41,508.4v20.39h1.73l12.34-12.61h5.18l-14.42,14.38,14.42,14.38h-5.18l-12.39-12.65h-1.68v12.65h-4.03v-36.54h4.03Z"/><path class="cls-1" d="m773.04,528.57h-2.61v16.37h-4.25v-36.54h4.25v16.37h2.61l14.86-16.37h5.44l-16.94,18.27,16.94,18.27h-5.44l-14.86-16.37Z"/><path class="cls-1" d="m813.96,539.94c-1.99,3.76-6.15,5.44-10.66,5.44-4.82,0-8.63-2.03-8.63-7.52,0-4.95,3.85-7.25,8.58-8.45l3.41-.84c3.67-.97,7.25-1.95,7.25-4.87v-.18c0-2.17-1.64-4.29-6.55-4.29s-7.74,2.21-7.74,6.24v1.06h-4.07v-.88c0-5.49,3.36-9.91,11.72-9.91s10.7,3.8,10.7,8.67v20.52h-4.03v-5Zm-9.6,1.99c4.73,0,9.07-2.88,9.55-8.32v-5.4c-.8,1.77-3.49,2.61-6.5,3.41l-2.92.8c-3.54.93-5.71,2.21-5.71,5.09,0,3.05,1.9,4.42,5.57,4.42Z"/><path class="cls-1" d="m828.73,521.01c1.11-2.52,3.94-5.26,8.36-5.26,5.26,0,7.92,3.27,7.92,9.2v2.57h-4.16v-2.17c0-3.58-1.11-6.06-5-6.06-5.44,0-7.12,5.17-7.12,7.96v17.69h-4.07v-28.75h4.07v4.82Z"/><path class="cls-1" d="m867.35,539.94c-1.99,3.76-6.15,5.44-10.66,5.44-4.82,0-8.63-2.03-8.63-7.52,0-4.95,3.85-7.25,8.58-8.45l3.41-.84c3.67-.97,7.25-1.95,7.25-4.87v-.18c0-2.17-1.64-4.29-6.55-4.29s-7.74,2.21-7.74,6.24v1.06h-4.07v-.88c0-5.49,3.36-9.91,11.72-9.91s10.7,3.8,10.7,8.67v20.52h-4.03v-5Zm-9.6,1.99c4.73,0,9.07-2.88,9.55-8.32v-5.4c-.8,1.77-3.49,2.61-6.5,3.41l-2.92.8c-3.54.93-5.71,2.21-5.71,5.09,0,3.05,1.9,4.42,5.57,4.42Z"/><path class="cls-1" d="m584.13,559.27h13.05c8.54,0,14.2,3.85,14.2,15.3v5.93c0,11.41-5.71,15.3-14.2,15.3h-13.05v-36.54Zm12.96,33.75c7.79,0,10.93-3.63,10.93-12.43v-6.1c0-8.85-3.14-12.43-10.93-12.43h-9.73v30.96h9.73Z"/><path class="cls-1" d="m619.29,558.83c1.46,0,2.39.97,2.39,2.26,0,1.15-.93,2.17-2.39,2.17s-2.43-1.02-2.43-2.17c0-1.28.93-2.26,2.43-2.26Zm1.55,8.23v28.75h-3.1v-28.75h3.1Z"/><path class="cls-1" d="m649.02,588.2c0,4.47-2.74,7.83-9.78,8.05l-.62,2.43c2.96-.44,4.87.22,4.87,2.7,0,3.05-3.54,3.58-8.05,3.58l.04-1.81c3.85,0,5.66-.22,5.66-1.73s-1.64-1.55-4.82-1.11l.97-4.11c-7.96-.35-10.88-4.11-10.88-9.55v-1.02h3.18v.97c0,4.91,2.79,6.94,8.94,6.94,4.87,0,7.3-1.77,7.3-5.18,0-2.48-1.33-4.11-5.44-5.4l-6.55-2.17c-4.42-1.24-6.46-3.41-6.46-6.86,0-4.03,3.1-7.34,9.95-7.34,8.18,0,11.19,3.76,11.19,9.02v.8h-3.18v-.8c0-4.6-2.88-6.33-7.92-6.33-3.94,0-6.86,1.5-6.86,4.47,0,2.08,1.06,3.32,4.47,4.42l6.77,2.26c5.31,1.59,7.21,3.94,7.21,7.74Z"/><path class="cls-1" d="m691.61,578.95h-19.68v16.85h-3.23v-36.54h3.23v16.85h19.68v-16.85h3.18v36.54h-3.18v-16.85Z"/><path class="cls-1" d="m700.99,579.31c0-7.87,4.03-12.7,11.94-12.7,7.12,0,11.46,3.94,11.46,12.21v3.01h-20.21v1.81c0,6.59,3.05,9.86,8.71,9.86,4.82,0,7.52-2.34,7.92-6.5l.04-.58h3.23v.44c-.53,5.53-4.16,9.38-11.19,9.38-7.87,0-11.9-4.78-11.9-12.74v-4.2Zm20.22.04v-1.46c-.13-6.19-3.36-8.54-8.27-8.54-5.75,0-8.76,3.18-8.76,9.86v.13h17.03Z"/><path class="cls-1" d="m733.5,559.27v20.83h1.37l13.62-13.05h4.11l-15.35,14.38,15.35,14.38h-4.11l-13.62-13.05h-1.37v13.05h-3.1v-36.54h3.1Z"/><path class="cls-1" d="m758.23,558.83c1.46,0,2.39.97,2.39,2.26,0,1.15-.93,2.17-2.39,2.17s-2.43-1.02-2.43-2.17c0-1.28.93-2.26,2.43-2.26Zm1.55,8.23v28.75h-3.1v-28.75h3.1Z"/><path class="cls-1" d="m794.54,569.31c-6.1,0-7.43,5.31-7.43,8.14v18.36h-3.1v-18.71c0-2.79-.35-7.79-6.24-7.79s-7.39,5.31-7.39,8.09v18.4h-3.1v-28.75h3.1v4.25c1.06-2.34,3.45-4.69,8.18-4.69s7.08,2.48,7.92,5.31c1.46-2.83,3.8-5.31,8.71-5.31,6.86,0,8.63,4.82,8.63,10.04v19.15h-3.1v-18.71c0-2.96-.35-7.79-6.19-7.79Z"/><path class="cls-1" d="m812.59,558.83c1.46,0,2.39.97,2.39,2.26,0,1.15-.93,2.17-2.39,2.17s-2.43-1.02-2.43-2.17c0-1.28.93-2.26,2.43-2.26Zm1.55,8.23v28.75h-3.1v-28.75h3.1Z"/><path class="cls-1" d="m1302.34,512.72c.83,0,1.26.11,1.44.17.05.16.13.52.13,1.18v53.45c0,8.2-1.64,14.42-4.88,18.5-3.04,3.84-7.21,5.7-12.74,5.7-3.14,0-5.79-.63-7.87-1.86l-.25-.15-.27-.11c-1.05-.44-1.95-.99-2.75-1.69-2.07-1.8-3.42-4.67-4-8.54l-.54-3.59h-8.79l-.54,3.59c-.58,3.86-1.93,6.74-4.01,8.54-.8.7-1.7,1.25-2.75,1.69l-.27.11-.25.15c-2.07,1.23-4.72,1.86-7.86,1.86-5.53,0-9.7-1.87-12.74-5.71-3.24-4.08-4.88-10.3-4.88-18.5v-53.45c0-.66.08-1.02.13-1.18.18-.06.61-.17,1.44-.17h30.31l2.54,3.14,3.28,4.06,3.28-4.06,2.54-3.14h30.31m0-4.22h-32.32l-3.81,4.71-3.81-4.71h-32.32c-2.01,0-3.48.45-4.4,1.34-.93.89-1.39,2.3-1.39,4.23v53.45c0,9.22,1.93,16.26,5.8,21.12,3.86,4.87,9.21,7.3,16.05,7.3,3.95,0,7.28-.82,10.02-2.45,1.43-.6,2.73-1.39,3.89-2.4,2.86-2.49,4.66-6.18,5.41-11.09h1.53c.74,4.91,2.54,8.6,5.41,11.09,1.16,1.01,2.46,1.8,3.89,2.4,2.74,1.62,6.07,2.45,10.02,2.45,6.84,0,12.19-2.43,16.05-7.3,3.87-4.86,5.8-11.91,5.8-21.12v-53.45c0-1.93-.46-3.34-1.39-4.23-.93-.89-2.4-1.34-4.4-1.34h0Z"/><polygon class="cls-1" points="1339.36 508.68 1310.96 508.68 1331.04 488.59 1328.16 485.71 1308.07 505.79 1308.07 477.39 1303.99 477.39 1303.99 505.79 1283.9 485.71 1281.01 488.59 1301.1 508.68 1272.69 508.68 1272.69 512.76 1301.1 512.76 1281.01 532.85 1283.9 535.74 1303.99 515.65 1303.99 544.06 1308.07 544.06 1308.07 515.65 1328.16 535.74 1331.04 532.85 1310.96 512.76 1339.36 512.76 1339.36 508.68"/></svg>