<svg xmlns="http://www.w3.org/2000/svg" id="Layer_1" viewBox="580.64 480.57 758.72 118.86"><defs><style>.cls-1{fill:#f1f0f1;}</style></defs><path class="cls-1" d="m592.71,511.59h5.44l12.12,36.54h-4.47l-2.34-7.34h-16.01l-2.34,7.34h-4.47l12.08-36.54Zm9.55,25.48l-6.64-20.79-.22-.57-.18.53-6.64,20.83h13.67Z"/><path class="cls-1" d="m632.17,543.43c-1.42,2.52-4.2,5.13-9.11,5.13-6.1,0-9.64-3.94-9.64-10.79v-18.4h4.11v18.05c0,5.04,2.26,7.65,6.77,7.65,5.88,0,7.61-4.29,7.87-7.21v-18.49h4.07v28.26c0,7.21-2.48,10.48-8.98,10.48h-13.18v-3.54h12.65c4.11,0,5.44-1.73,5.44-7.12v-4.03Z"/><path class="cls-1" d="m643.18,511.59h4.03v12.21c1.11-2.03,3.89-4.87,9.02-4.87,7.03,0,11.24,4.95,11.24,12.34v5.04c0,7.43-4.25,12.25-11.19,12.25-5.13,0-7.83-2.74-9.07-4.69v4.25h-4.03v-36.54Zm12.21,33.44c5.4,0,7.92-3.76,7.92-8.94v-4.69c0-5.13-2.61-8.94-7.96-8.94s-8.14,3.67-8.14,8.89v4.78c0,5.18,2.83,8.89,8.18,8.89Z"/><path class="cls-1" d="m671.71,531.76c0-7.96,4.11-12.83,12.34-12.83,7.43,0,11.85,4.16,11.85,12.47v3.1h-19.99v1.5c0,5.88,2.7,9.02,8.14,9.02,4.47,0,6.81-2.17,7.21-5.71l.04-.71h4.34l-.04.44c-.53,5.62-4.29,9.51-11.55,9.51-8.23,0-12.34-4.87-12.34-12.87v-3.94Zm19.99-.35l-.04-1.42c-.22-5.35-3.14-7.52-7.65-7.52-5.35,0-8.05,3.05-8.09,8.94h15.79Z"/><path class="cls-1" d="m705.55,524.19c1.11-2.52,3.94-5.26,8.36-5.26,5.26,0,7.92,3.27,7.92,9.2v2.57h-4.16v-2.17c0-3.58-1.11-6.06-5-6.06-5.44,0-7.12,5.18-7.12,7.96v17.69h-4.07v-28.75h4.07v4.82Z"/><path class="cls-1" d="m730.41,511.59v20.39h1.73l12.34-12.61h5.18l-14.42,14.37,14.42,14.38h-5.18l-12.39-12.65h-1.68v12.65h-4.03v-36.54h4.03Z"/><path class="cls-1" d="m773.04,531.76h-2.61v16.37h-4.25v-36.54h4.25v16.37h2.61l14.86-16.37h5.44l-16.94,18.27,16.94,18.27h-5.44l-14.86-16.37Z"/><path class="cls-1" d="m813.96,543.12c-1.99,3.76-6.15,5.44-10.66,5.44-4.82,0-8.63-2.03-8.63-7.52,0-4.95,3.85-7.25,8.58-8.45l3.41-.84c3.67-.97,7.25-1.95,7.25-4.87v-.18c0-2.17-1.64-4.29-6.55-4.29s-7.74,2.21-7.74,6.24v1.06h-4.07v-.88c0-5.49,3.36-9.91,11.72-9.91s10.7,3.8,10.7,8.67v20.52h-4.03v-5Zm-9.6,1.99c4.73,0,9.07-2.88,9.55-8.32v-5.4c-.8,1.77-3.49,2.61-6.5,3.41l-2.92.8c-3.54.93-5.71,2.21-5.71,5.09,0,3.05,1.9,4.42,5.57,4.42Z"/><path class="cls-1" d="m828.73,524.19c1.11-2.52,3.94-5.26,8.36-5.26,5.26,0,7.92,3.27,7.92,9.2v2.57h-4.16v-2.17c0-3.58-1.11-6.06-5-6.06-5.44,0-7.12,5.18-7.12,7.96v17.69h-4.07v-28.75h4.07v4.82Z"/><path class="cls-1" d="m867.35,543.12c-1.99,3.76-6.15,5.44-10.66,5.44-4.82,0-8.63-2.03-8.63-7.52,0-4.95,3.85-7.25,8.58-8.45l3.41-.84c3.67-.97,7.25-1.95,7.25-4.87v-.18c0-2.17-1.64-4.29-6.55-4.29s-7.74,2.21-7.74,6.24v1.06h-4.07v-.88c0-5.49,3.36-9.91,11.72-9.91s10.7,3.8,10.7,8.67v20.52h-4.03v-5Zm-9.6,1.99c4.73,0,9.07-2.88,9.55-8.32v-5.4c-.8,1.77-3.49,2.61-6.5,3.41l-2.92.8c-3.54.93-5.71,2.21-5.71,5.09,0,3.05,1.9,4.42,5.57,4.42Z"/><path class="cls-1" d="m582.49,583.86v-6.32c0-8.58,4.91-15.53,14.91-15.53s14.95,6.95,14.95,15.53v6.32c0,8.67-4.91,15.57-14.95,15.57s-14.91-6.9-14.91-15.57Zm14.91,12.61c7.61,0,11.59-4.82,11.59-12.47v-6.59c0-7.52-3.98-12.43-11.59-12.43s-11.54,4.91-11.54,12.43v6.59c0,7.65,3.98,12.47,11.54,12.47Z"/><path class="cls-1" d="m621.68,575.32c1.06-2.48,3.8-5.53,8.49-5.53,5.49,0,7.7,3.45,7.7,8.98v2.12h-3.14v-1.9c0-3.63-1.11-6.46-5.31-6.46-5.93,0-7.74,6.02-7.74,8.85v17.61h-3.1v-28.75h3.1v5.09Z"/><path class="cls-1" d="m656.8,572.93h-8.01v17.38c0,4.78.31,5.97,3.85,5.97h4.16v2.7h-5c-5.48,0-6.1-2.83-6.1-8.14v-17.91h-6.24v-2.7h1.46c4.07-.26,5.66-3.36,5.62-7.79h3.1c0,4.47-1.77,7.21-3.63,7.79h10.79v2.7Z"/><path class="cls-1" d="m660.08,586.65v-4.07c0-7.96,4.03-12.78,11.85-12.78s11.9,4.82,11.9,12.78v4.07c0,8.01-4.03,12.78-11.9,12.78s-11.85-4.78-11.85-12.78Zm11.85,10.04c5.71,0,8.71-3.27,8.71-9.95v-4.25c0-6.68-3.01-9.95-8.71-9.95s-8.67,3.27-8.67,9.95v4.25c0,6.68,2.96,9.95,8.67,9.95Z"/><path class="cls-1" d="m712.01,562.45v36.54h-3.1v-4.73c-1.02,2.08-3.89,5.17-9.29,5.17-6.99,0-11.19-4.95-11.19-12.38v-4.91c0-7.61,4.25-12.34,11.15-12.34,5.44,0,8.14,3.01,9.33,5v-12.34h3.1Zm-11.85,34.24c5.53,0,8.76-3.85,8.76-9.69v-4.78c0-5.75-3.14-9.69-8.8-9.69s-8.49,3.98-8.49,9.73v4.69c0,5.71,2.83,9.73,8.54,9.73Z"/><path class="cls-1" d="m718.06,586.65v-4.07c0-7.96,4.03-12.78,11.85-12.78s11.9,4.82,11.9,12.78v4.07c0,8.01-4.03,12.78-11.9,12.78s-11.85-4.78-11.85-12.78Zm11.85,10.04c5.71,0,8.71-3.27,8.71-9.95v-4.25c0-6.68-3.01-9.95-8.71-9.95s-8.67,3.27-8.67,9.95v4.25c0,6.68,2.96,9.95,8.67,9.95Z"/><path class="cls-1" d="m750.97,575.15c1.28-2.48,4.03-5.35,9.33-5.35,6.15,0,9.73,3.76,9.73,10.66v18.53h-3.14v-18.27c0-5.44-2.52-8.23-7.3-8.23-7.12,0-8.63,5.88-8.63,8.8v17.69h-3.1v-28.75h3.1v4.91Z"/><path class="cls-1" d="m790.47,572.93h-8.01v17.38c0,4.78.31,5.97,3.85,5.97h4.16v2.7h-5c-5.48,0-6.1-2.83-6.1-8.14v-17.91h-6.24v-2.7h1.46c4.07-.26,5.66-3.36,5.62-7.79h3.1c0,4.47-1.77,7.21-3.63,7.79h10.79v2.7Z"/><path class="cls-1" d="m797.42,562.01c1.46,0,2.39.97,2.39,2.26,0,1.15-.93,2.17-2.39,2.17s-2.43-1.02-2.43-2.17c0-1.28.93-2.26,2.43-2.26Zm1.55,8.23v28.75h-3.1v-28.75h3.1Z"/><path class="cls-1" d="m1302.34,515.9c.83,0,1.26.11,1.44.17.05.16.13.52.13,1.18v53.45c0,8.2-1.64,14.42-4.88,18.5-3.04,3.84-7.21,5.7-12.74,5.7-3.14,0-5.79-.63-7.87-1.86l-.25-.15-.27-.11c-1.05-.44-1.95-.99-2.75-1.69-2.07-1.8-3.42-4.67-4-8.54l-.54-3.59h-8.79l-.54,3.59c-.58,3.86-1.93,6.74-4.01,8.54-.8.7-1.7,1.25-2.75,1.69l-.27.11-.25.15c-2.07,1.23-4.72,1.86-7.86,1.86-5.53,0-9.7-1.87-12.74-5.71-3.24-4.08-4.88-10.3-4.88-18.5v-53.45c0-.66.08-1.02.13-1.18.18-.06.61-.17,1.44-.17h30.31l2.54,3.14,3.28,4.06,3.28-4.06,2.54-3.14h30.31m0-4.22h-32.32l-3.81,4.71-3.81-4.71h-32.32c-2.01,0-3.48.45-4.4,1.34-.93.89-1.39,2.3-1.39,4.23v53.45c0,9.22,1.93,16.26,5.8,21.12,3.86,4.87,9.21,7.3,16.05,7.3,3.95,0,7.28-.82,10.02-2.45,1.43-.6,2.73-1.39,3.89-2.4,2.86-2.49,4.66-6.18,5.41-11.09h1.53c.74,4.91,2.54,8.6,5.41,11.09,1.16,1.01,2.46,1.8,3.89,2.4,2.74,1.62,6.07,2.45,10.02,2.45,6.84,0,12.19-2.43,16.05-7.3,3.87-4.86,5.8-11.91,5.8-21.12v-53.45c0-1.93-.46-3.34-1.39-4.23-.93-.89-2.4-1.34-4.4-1.34h0Z"/><polygon class="cls-1" points="1339.36 511.86 1310.96 511.86 1331.04 491.78 1328.16 488.89 1308.07 508.98 1308.07 480.57 1303.99 480.57 1303.99 508.98 1283.9 488.89 1281.01 491.78 1301.1 511.86 1272.69 511.86 1272.69 515.95 1301.1 515.95 1281.01 536.03 1283.9 538.92 1303.99 518.83 1303.99 547.24 1308.07 547.24 1308.07 518.83 1328.16 538.92 1331.04 536.03 1310.96 515.95 1339.36 515.95 1339.36 511.86"/></svg>